
<svg xmlns="http://www.w3.org/2000/svg" version="1.1" xmlns:xlink="http://www.w3.org/1999/xlink" preserveAspectRatio="none" x="0px" y="0px" width="200px" height="200px" viewBox="0 0 200 200">
<defs>
<path id="Layer0_0_MEMBER_0_MEMBER_0_1_STROKES" stroke="#FFFFFF" stroke-width="12" stroke-linejoin="round" stroke-linecap="round" fill="none" d="
M 168.05 144.7
Q 168.05 155.5 163.1 160.65 158.65 165.25 148.05 167.2 100.05 176.15 55.7 167.2 45.3 165.2 40.75 160.65 35.7 155.45 35.7 144.7
L 35.65 102.85
Q 35.65 91.95 40.55 86.95 45 82.3 55.65 80.35 103.6 71.4 148 80.35 158.45 82.45 162.85 86.95 168 92.1 168 102.85
L 168.05 144.7 Z
M 76.9 38.25
L 98.25 59.6 137.1 20.75"/>
</defs>

<g transform="matrix( 1, 0, 0, 1, -0.5,0) ">
<use xlink:href="#Layer0_0_MEMBER_0_MEMBER_0_1_STROKES"/>
</g>
</svg>
